<?xml version="1.0" standalone="no"?><!DOCTYPE svg PUBLIC "-//W3C//DTD SVG 1.1//EN" "http://www.w3.org/Graphics/SVG/1.1/DTD/svg11.dtd"><svg class="icon" width="200px" height="156.46px" viewBox="0 0 1309 1024" version="1.1" xmlns="http://www.w3.org/2000/svg"><path d="M606.01963351 954.88253424L606.01963351-3.88857977a55.31975354 55.31975354 0 0 1 110.63950625-1e-8l0 958.77111403a55.31975354 55.31975354 0 0 1-110.63950625-1e-8z" fill="#666666" /><path d="M211.33337198 613.83257148a59.00773711 59.00773711 0 0 1 100.68525088-41.71613995L661.33979063 921.38609804 1010.60945714 572.11643153a59.00001152 59.00001152 0 1 1 83.4451541 83.43227901L703.05592969 1046.56026718a58.98198604 58.98198604 0 0 1-83.43227899 0L228.62496915 655.54871054a58.78885606 58.78885606 0 0 1-17.29159717-41.71613906z" fill="#666666" /></svg>