<?xml version="1.0" standalone="no"?><!DOCTYPE svg PUBLIC "-//W3C//DTD SVG 1.1//EN" "http://www.w3.org/Graphics/SVG/1.1/DTD/svg11.dtd"><svg class="icon" width="200px" height="200.00px" viewBox="0 0 1024 1024" version="1.1" xmlns="http://www.w3.org/2000/svg"><path d="M939.558307 58.553581L218.847845 246.038626l-3.086291-0.189312-0.062422 1.00898-0.743944 0.193405 0.703012 0.484024-10.80202 175.893032 78.245061 34.344203L86.103542 654.023644l1.415232 156.007123 376.727107 151.402245L685.624874 713.093994l217.050408 106.708324 2.123361-210.616882 34.759664-550.631855zM895.145795 112.403023l-29.194926 462.499609-174.405145-96.339162-267.487124 274.716782-250.88705-108.407012 283.632849-280.935414-144.903228-99.81124L895.145795 112.403023zM247.462556 397.427568l7.540744-122.791627 137.89665 94.985328-64.111157 63.502289-81.326237-35.69599zM127.190309 670.870334l0.893346-0.890276 291.976888 126.163421V899.56085L128.201335 782.2654l-1.011026-111.395066z m333.802482 232.699829V777.660522h-3.542686l215.545124-221.370806 2.699482 106.434077L460.992791 903.570163z m256.159124-220.586954l-3.690042-145.552003 150.289911 83.018785-1.349741 133.942595-145.250128-71.409377z" fill="#272536" /></svg>